<mxfile host="app.diagrams.net" modified="2023-10-25T19:17:23.494Z" agent="Mozilla/5.0 (Windows NT 10.0; Win64; x64) AppleWebKit/537.36 (KHTML, like Gecko) Chrome/116.0.0.0 Safari/537.36 OPR/102.0.0.0 (Edition Yx GX)" etag="c-IgGXyZoPKoO2GdmSjc" version="22.0.7" type="github">
  <diagram id="C5RBs43oDa-KdzZeNtuy" name="Page-1">
    <mxGraphModel dx="2018" dy="2331" grid="1" gridSize="10" guides="1" tooltips="1" connect="1" arrows="1" fold="1" page="1" pageScale="1" pageWidth="827" pageHeight="1169" math="0" shadow="0">
      <root>
        <mxCell id="WIyWlLk6GJQsqaUBKTNV-0" />
        <mxCell id="WIyWlLk6GJQsqaUBKTNV-1" parent="WIyWlLk6GJQsqaUBKTNV-0" />
        <mxCell id="xSUPIS03bGIs6KMxI9sO-0" value="" style="edgeStyle=orthogonalEdgeStyle;rounded=0;orthogonalLoop=1;jettySize=auto;html=1;" parent="WIyWlLk6GJQsqaUBKTNV-1" source="xSUPIS03bGIs6KMxI9sO-1" edge="1">
          <mxGeometry relative="1" as="geometry">
            <mxPoint x="500" y="-280" as="targetPoint" />
          </mxGeometry>
        </mxCell>
        <mxCell id="xSUPIS03bGIs6KMxI9sO-1" value="&lt;p style=&quot;line-height: 110%;&quot;&gt;&lt;font style=&quot;font-size: 18px;&quot;&gt;formB&lt;/font&gt;&lt;/p&gt;" style="ellipse;whiteSpace=wrap;html=1;" parent="WIyWlLk6GJQsqaUBKTNV-1" vertex="1">
          <mxGeometry x="445" y="-380" width="110" height="60" as="geometry" />
        </mxCell>
        <mxCell id="xSUPIS03bGIs6KMxI9sO-2" value="&lt;span style=&quot;font-size: 25px;&quot;&gt;Ввод &lt;br&gt;a, n&lt;br&gt;&lt;/span&gt;" style="shape=parallelogram;perimeter=parallelogramPerimeter;whiteSpace=wrap;html=1;fixedSize=1;" parent="WIyWlLk6GJQsqaUBKTNV-1" vertex="1">
          <mxGeometry x="440" y="-280" width="120" height="60" as="geometry" />
        </mxCell>
        <mxCell id="xSUPIS03bGIs6KMxI9sO-3" value="" style="edgeStyle=orthogonalEdgeStyle;rounded=0;orthogonalLoop=1;jettySize=auto;html=1;" parent="WIyWlLk6GJQsqaUBKTNV-1" edge="1">
          <mxGeometry relative="1" as="geometry">
            <mxPoint x="499.99999999999994" y="-220" as="sourcePoint" />
            <mxPoint x="499.99999999999994" y="-180" as="targetPoint" />
          </mxGeometry>
        </mxCell>
        <mxCell id="xSUPIS03bGIs6KMxI9sO-13" value="k = -1" style="rounded=0;whiteSpace=wrap;html=1;fontSize=20;" parent="WIyWlLk6GJQsqaUBKTNV-1" vertex="1">
          <mxGeometry x="427.18" y="-40" width="145.64" height="51" as="geometry" />
        </mxCell>
        <mxCell id="xSUPIS03bGIs6KMxI9sO-14" value="" style="edgeStyle=orthogonalEdgeStyle;rounded=0;orthogonalLoop=1;jettySize=auto;html=1;entryX=0.5;entryY=0;entryDx=0;entryDy=0;" parent="WIyWlLk6GJQsqaUBKTNV-1" target="xSUPIS03bGIs6KMxI9sO-81" edge="1">
          <mxGeometry relative="1" as="geometry">
            <mxPoint x="499.5799999999999" y="11" as="sourcePoint" />
            <mxPoint x="499.5799999999999" y="51" as="targetPoint" />
          </mxGeometry>
        </mxCell>
        <mxCell id="xSUPIS03bGIs6KMxI9sO-25" value="&lt;span style=&quot;font-size: 20px;&quot;&gt;k == -1&lt;/span&gt;" style="rhombus;whiteSpace=wrap;html=1;" parent="WIyWlLk6GJQsqaUBKTNV-1" vertex="1">
          <mxGeometry x="1148" y="-155" width="92" height="80" as="geometry" />
        </mxCell>
        <mxCell id="xSUPIS03bGIs6KMxI9sO-26" value="&#xa;&lt;div style=&quot;color: rgb(204, 204, 204); background-color: rgb(31, 31, 31); font-family: Consolas, &amp;quot;Courier New&amp;quot;, monospace; font-weight: normal; font-size: 14px; line-height: 19px;&quot;&gt;&lt;br&gt;&lt;/div&gt;&#xa;&#xa;" style="endArrow=classic;html=1;rounded=0;exitX=0;exitY=0.5;exitDx=0;exitDy=0;" parent="WIyWlLk6GJQsqaUBKTNV-1" edge="1">
          <mxGeometry width="50" height="50" relative="1" as="geometry">
            <mxPoint x="1147" y="-114.50000000000045" as="sourcePoint" />
            <mxPoint x="988" y="-46" as="targetPoint" />
            <Array as="points">
              <mxPoint x="988" y="-116" />
            </Array>
          </mxGeometry>
        </mxCell>
        <mxCell id="xSUPIS03bGIs6KMxI9sO-28" value="" style="endArrow=classic;html=1;rounded=0;exitX=1;exitY=0.5;exitDx=0;exitDy=0;endFill=1;" parent="WIyWlLk6GJQsqaUBKTNV-1" edge="1">
          <mxGeometry width="50" height="50" relative="1" as="geometry">
            <mxPoint x="1240" y="-114.50000000000045" as="sourcePoint" />
            <mxPoint x="1310" y="-55" as="targetPoint" />
            <Array as="points">
              <mxPoint x="1310" y="-114.5" />
            </Array>
          </mxGeometry>
        </mxCell>
        <mxCell id="xSUPIS03bGIs6KMxI9sO-29" value="&lt;font style=&quot;font-size: 20px;&quot;&gt;Да&lt;/font&gt;" style="edgeLabel;html=1;align=center;verticalAlign=middle;resizable=0;points=[];" parent="WIyWlLk6GJQsqaUBKTNV-1" vertex="1" connectable="0">
          <mxGeometry x="1152.0033697591853" y="-134.00435767325158" as="geometry">
            <mxPoint x="122" y="17" as="offset" />
          </mxGeometry>
        </mxCell>
        <mxCell id="xSUPIS03bGIs6KMxI9sO-31" value="&lt;span style=&quot;font-size: 25px;&quot;&gt;Вывод&lt;br&gt;a, n&lt;br&gt;&lt;/span&gt;" style="shape=parallelogram;perimeter=parallelogramPerimeter;whiteSpace=wrap;html=1;fixedSize=1;" parent="WIyWlLk6GJQsqaUBKTNV-1" vertex="1">
          <mxGeometry x="1248.0000000000002" y="-55" width="120" height="61" as="geometry" />
        </mxCell>
        <mxCell id="xSUPIS03bGIs6KMxI9sO-32" value="b = malloc(k + 1)" style="rounded=0;whiteSpace=wrap;html=1;fontSize=20;" parent="WIyWlLk6GJQsqaUBKTNV-1" vertex="1">
          <mxGeometry x="906.5900000000001" y="-46" width="162.82" height="51" as="geometry" />
        </mxCell>
        <mxCell id="xSUPIS03bGIs6KMxI9sO-33" value="&lt;font style=&quot;font-size: 20px;&quot;&gt;i = 0; i &amp;lt;= k; i++&lt;/font&gt;" style="shape=hexagon;perimeter=hexagonPerimeter2;whiteSpace=wrap;html=1;fixedSize=1;" parent="WIyWlLk6GJQsqaUBKTNV-1" vertex="1">
          <mxGeometry x="886.1300000000001" y="95" width="203.75" height="50" as="geometry" />
        </mxCell>
        <mxCell id="xSUPIS03bGIs6KMxI9sO-34" value="" style="edgeStyle=orthogonalEdgeStyle;rounded=0;orthogonalLoop=1;jettySize=auto;html=1;entryX=0.5;entryY=0;entryDx=0;entryDy=0;" parent="WIyWlLk6GJQsqaUBKTNV-1" target="xSUPIS03bGIs6KMxI9sO-33" edge="1">
          <mxGeometry relative="1" as="geometry">
            <mxPoint x="987.29" y="5" as="sourcePoint" />
            <mxPoint x="987.29" y="45" as="targetPoint" />
          </mxGeometry>
        </mxCell>
        <mxCell id="xSUPIS03bGIs6KMxI9sO-35" value="" style="edgeStyle=orthogonalEdgeStyle;rounded=0;orthogonalLoop=1;jettySize=auto;html=1;" parent="WIyWlLk6GJQsqaUBKTNV-1" edge="1">
          <mxGeometry relative="1" as="geometry">
            <mxPoint x="987.1699999999998" y="145" as="sourcePoint" />
            <mxPoint x="987" y="200" as="targetPoint" />
          </mxGeometry>
        </mxCell>
        <mxCell id="xSUPIS03bGIs6KMxI9sO-36" value="b[i] = a[3 * i] + a[3 * i + 1] + a[3 * i + 2]" style="rounded=0;whiteSpace=wrap;html=1;fontSize=20;" parent="WIyWlLk6GJQsqaUBKTNV-1" vertex="1">
          <mxGeometry x="780" y="201" width="416" height="51" as="geometry" />
        </mxCell>
        <mxCell id="xSUPIS03bGIs6KMxI9sO-37" value="" style="edgeStyle=orthogonalEdgeStyle;rounded=0;orthogonalLoop=1;jettySize=auto;html=1;entryX=0;entryY=0.5;entryDx=0;entryDy=0;" parent="WIyWlLk6GJQsqaUBKTNV-1" target="xSUPIS03bGIs6KMxI9sO-33" edge="1">
          <mxGeometry relative="1" as="geometry">
            <mxPoint x="987" y="250" as="sourcePoint" />
            <mxPoint x="700" y="125" as="targetPoint" />
            <Array as="points">
              <mxPoint x="987" y="285" />
              <mxPoint x="730" y="285" />
              <mxPoint x="730" y="120" />
            </Array>
          </mxGeometry>
        </mxCell>
        <mxCell id="xSUPIS03bGIs6KMxI9sO-38" value="q = 0" style="rounded=0;whiteSpace=wrap;html=1;fontSize=20;" parent="WIyWlLk6GJQsqaUBKTNV-1" vertex="1">
          <mxGeometry x="1228.6" y="285" width="162.82" height="51" as="geometry" />
        </mxCell>
        <mxCell id="xSUPIS03bGIs6KMxI9sO-40" value="&lt;span style=&quot;font-size: 20px;&quot;&gt;q == n&lt;/span&gt;" style="rhombus;whiteSpace=wrap;html=1;" parent="WIyWlLk6GJQsqaUBKTNV-1" vertex="1">
          <mxGeometry x="1269.42" y="415" width="80" height="80" as="geometry" />
        </mxCell>
        <mxCell id="xSUPIS03bGIs6KMxI9sO-42" value="" style="endArrow=classic;html=1;rounded=0;exitX=1;exitY=0.5;exitDx=0;exitDy=0;endFill=1;" parent="WIyWlLk6GJQsqaUBKTNV-1" edge="1">
          <mxGeometry width="50" height="50" relative="1" as="geometry">
            <mxPoint x="1350.4200000000003" y="454.99999999999955" as="sourcePoint" />
            <mxPoint x="1430" y="455" as="targetPoint" />
            <Array as="points" />
          </mxGeometry>
        </mxCell>
        <mxCell id="xSUPIS03bGIs6KMxI9sO-43" value="&lt;font style=&quot;font-size: 20px;&quot;&gt;Да&lt;/font&gt;" style="edgeLabel;html=1;align=center;verticalAlign=middle;resizable=0;points=[];" parent="WIyWlLk6GJQsqaUBKTNV-1" vertex="1" connectable="0">
          <mxGeometry x="1263.0033697591853" y="434.99564232674845" as="geometry">
            <mxPoint x="122" y="17" as="offset" />
          </mxGeometry>
        </mxCell>
        <mxCell id="xSUPIS03bGIs6KMxI9sO-44" value="&lt;font style=&quot;font-size: 20px;&quot;&gt;j = 0; j &amp;lt;= k; j++&lt;/font&gt;" style="shape=hexagon;perimeter=hexagonPerimeter2;whiteSpace=wrap;html=1;fixedSize=1;" parent="WIyWlLk6GJQsqaUBKTNV-1" vertex="1">
          <mxGeometry x="1120.41" y="524" width="203.75" height="50" as="geometry" />
        </mxCell>
        <mxCell id="xSUPIS03bGIs6KMxI9sO-45" value="&#xa;&lt;div style=&quot;color: rgb(204, 204, 204); background-color: rgb(31, 31, 31); font-family: Consolas, &amp;quot;Courier New&amp;quot;, monospace; font-weight: normal; font-size: 14px; line-height: 19px;&quot;&gt;&lt;br&gt;&lt;/div&gt;&#xa;&#xa;" style="endArrow=classic;html=1;rounded=0;exitX=0;exitY=0.5;exitDx=0;exitDy=0;" parent="WIyWlLk6GJQsqaUBKTNV-1" edge="1">
          <mxGeometry width="50" height="50" relative="1" as="geometry">
            <mxPoint x="1269.42" y="455.49999999999955" as="sourcePoint" />
            <mxPoint x="1220.41" y="524" as="targetPoint" />
            <Array as="points">
              <mxPoint x="1220.41" y="454" />
            </Array>
          </mxGeometry>
        </mxCell>
        <mxCell id="xSUPIS03bGIs6KMxI9sO-46" value="" style="edgeStyle=orthogonalEdgeStyle;rounded=0;orthogonalLoop=1;jettySize=auto;html=1;" parent="WIyWlLk6GJQsqaUBKTNV-1" edge="1">
          <mxGeometry relative="1" as="geometry">
            <mxPoint x="1227.08" y="574" as="sourcePoint" />
            <mxPoint x="1227.08" y="614" as="targetPoint" />
          </mxGeometry>
        </mxCell>
        <mxCell id="xSUPIS03bGIs6KMxI9sO-47" value="&lt;span style=&quot;font-size: 20px;&quot;&gt;b[j] == a[q]&lt;/span&gt;" style="rhombus;whiteSpace=wrap;html=1;" parent="WIyWlLk6GJQsqaUBKTNV-1" vertex="1">
          <mxGeometry x="1166.16" y="614" width="121.37" height="111" as="geometry" />
        </mxCell>
        <mxCell id="xSUPIS03bGIs6KMxI9sO-50" value="&#xa;&lt;div style=&quot;color: rgb(204, 204, 204); background-color: rgb(31, 31, 31); font-family: Consolas, &amp;quot;Courier New&amp;quot;, monospace; font-weight: normal; font-size: 14px; line-height: 19px;&quot;&gt;&lt;br&gt;&lt;/div&gt;&#xa;&#xa;" style="endArrow=classic;html=1;rounded=0;exitX=1;exitY=0.5;exitDx=0;exitDy=0;" parent="WIyWlLk6GJQsqaUBKTNV-1" edge="1">
          <mxGeometry width="50" height="50" relative="1" as="geometry">
            <mxPoint x="1089.88" y="119.73" as="sourcePoint" />
            <mxPoint x="1310" y="285" as="targetPoint" />
            <Array as="points">
              <mxPoint x="1145.88" y="119.73" />
              <mxPoint x="1310" y="120" />
            </Array>
          </mxGeometry>
        </mxCell>
        <mxCell id="xSUPIS03bGIs6KMxI9sO-51" value="" style="endArrow=classic;html=1;rounded=0;exitX=1;exitY=0.5;exitDx=0;exitDy=0;endFill=1;" parent="WIyWlLk6GJQsqaUBKTNV-1" edge="1">
          <mxGeometry width="50" height="50" relative="1" as="geometry">
            <mxPoint x="1288.5300000000002" y="669.9999999999995" as="sourcePoint" />
            <mxPoint x="1358.52" y="729" as="targetPoint" />
            <Array as="points">
              <mxPoint x="1358.5300000000002" y="670" />
            </Array>
          </mxGeometry>
        </mxCell>
        <mxCell id="xSUPIS03bGIs6KMxI9sO-52" value="&lt;font style=&quot;font-size: 20px;&quot;&gt;Да&lt;/font&gt;" style="edgeLabel;html=1;align=center;verticalAlign=middle;resizable=0;points=[];" parent="WIyWlLk6GJQsqaUBKTNV-1" vertex="1" connectable="0">
          <mxGeometry x="1198.4133697591853" y="650.9956423267485" as="geometry">
            <mxPoint x="122" y="17" as="offset" />
          </mxGeometry>
        </mxCell>
        <mxCell id="xSUPIS03bGIs6KMxI9sO-53" value="a = delete(a, n, q)" style="rounded=0;whiteSpace=wrap;html=1;fontSize=20;" parent="WIyWlLk6GJQsqaUBKTNV-1" vertex="1">
          <mxGeometry x="1269.42" y="732" width="181.82" height="51" as="geometry" />
        </mxCell>
        <mxCell id="xSUPIS03bGIs6KMxI9sO-55" value="" style="edgeStyle=orthogonalEdgeStyle;rounded=0;orthogonalLoop=1;jettySize=auto;html=1;" parent="WIyWlLk6GJQsqaUBKTNV-1" edge="1">
          <mxGeometry relative="1" as="geometry">
            <mxPoint x="1358.5900000000001" y="783" as="sourcePoint" />
            <mxPoint x="1358.5900000000001" y="823" as="targetPoint" />
          </mxGeometry>
        </mxCell>
        <mxCell id="xSUPIS03bGIs6KMxI9sO-56" value="q = q - 1" style="rounded=0;whiteSpace=wrap;html=1;fontSize=20;" parent="WIyWlLk6GJQsqaUBKTNV-1" vertex="1">
          <mxGeometry x="1278.92" y="824" width="162.82" height="51" as="geometry" />
        </mxCell>
        <mxCell id="xSUPIS03bGIs6KMxI9sO-57" value="&#xa;&lt;div style=&quot;color: rgb(204, 204, 204); background-color: rgb(31, 31, 31); font-family: Consolas, &amp;quot;Courier New&amp;quot;, monospace; font-weight: normal; font-size: 14px; line-height: 19px;&quot;&gt;&lt;br&gt;&lt;/div&gt;&#xa;&#xa;" style="endArrow=classic;html=1;rounded=0;exitX=0;exitY=0.5;exitDx=0;exitDy=0;entryX=0;entryY=0.5;entryDx=0;entryDy=0;" parent="WIyWlLk6GJQsqaUBKTNV-1" source="xSUPIS03bGIs6KMxI9sO-47" target="xSUPIS03bGIs6KMxI9sO-44" edge="1">
          <mxGeometry width="50" height="50" relative="1" as="geometry">
            <mxPoint x="1360.3300000000002" y="1005" as="sourcePoint" />
            <mxPoint x="1090.41" y="934" as="targetPoint" />
            <Array as="points">
              <mxPoint x="1110.41" y="670" />
              <mxPoint x="1070.41" y="670" />
              <mxPoint x="1070.41" y="549" />
            </Array>
          </mxGeometry>
        </mxCell>
        <mxCell id="xSUPIS03bGIs6KMxI9sO-60" value="" style="edgeStyle=orthogonalEdgeStyle;rounded=0;orthogonalLoop=1;jettySize=auto;html=1;endArrow=none;endFill=0;" parent="WIyWlLk6GJQsqaUBKTNV-1" edge="1">
          <mxGeometry relative="1" as="geometry">
            <mxPoint x="1359.41" y="874" as="sourcePoint" />
            <mxPoint x="1490.41" y="550" as="targetPoint" />
            <Array as="points">
              <mxPoint x="1359.41" y="956" />
              <mxPoint x="1490.41" y="956" />
            </Array>
          </mxGeometry>
        </mxCell>
        <mxCell id="xSUPIS03bGIs6KMxI9sO-61" value="&#xa;&lt;div style=&quot;color: rgb(204, 204, 204); background-color: rgb(31, 31, 31); font-family: Consolas, &amp;quot;Courier New&amp;quot;, monospace; font-weight: normal; font-size: 14px; line-height: 19px;&quot;&gt;&lt;br&gt;&lt;/div&gt;&#xa;&#xa;" style="endArrow=classic;html=1;rounded=0;exitX=1;exitY=0.5;exitDx=0;exitDy=0;entryX=0.5;entryY=0;entryDx=0;entryDy=0;" parent="WIyWlLk6GJQsqaUBKTNV-1" target="xSUPIS03bGIs6KMxI9sO-65" edge="1">
          <mxGeometry width="50" height="50" relative="1" as="geometry">
            <mxPoint x="1325.3300000000002" y="549.23" as="sourcePoint" />
            <mxPoint x="1600" y="605" as="targetPoint" />
            <Array as="points">
              <mxPoint x="1381.3300000000002" y="549.23" />
              <mxPoint x="1620" y="549" />
            </Array>
          </mxGeometry>
        </mxCell>
        <mxCell id="xSUPIS03bGIs6KMxI9sO-64" value="" style="edgeStyle=orthogonalEdgeStyle;rounded=0;orthogonalLoop=1;jettySize=auto;html=1;exitX=0.5;exitY=1;exitDx=0;exitDy=0;entryX=0.5;entryY=0;entryDx=0;entryDy=0;" parent="WIyWlLk6GJQsqaUBKTNV-1" source="xSUPIS03bGIs6KMxI9sO-38" target="xSUPIS03bGIs6KMxI9sO-40" edge="1">
          <mxGeometry relative="1" as="geometry">
            <mxPoint x="1309.5099999999998" y="336" as="sourcePoint" />
            <mxPoint x="1309.5099999999998" y="376" as="targetPoint" />
          </mxGeometry>
        </mxCell>
        <mxCell id="xSUPIS03bGIs6KMxI9sO-65" value="q = q + 1" style="rounded=0;whiteSpace=wrap;html=1;fontSize=20;" parent="WIyWlLk6GJQsqaUBKTNV-1" vertex="1">
          <mxGeometry x="1539" y="605" width="162.82" height="51" as="geometry" />
        </mxCell>
        <mxCell id="xSUPIS03bGIs6KMxI9sO-66" value="" style="ellipse;whiteSpace=wrap;html=1;aspect=fixed;" parent="WIyWlLk6GJQsqaUBKTNV-1" vertex="1">
          <mxGeometry x="1430" y="350" width="50" height="50" as="geometry" />
        </mxCell>
        <mxCell id="xSUPIS03bGIs6KMxI9sO-67" value="" style="edgeStyle=orthogonalEdgeStyle;rounded=0;orthogonalLoop=1;jettySize=auto;html=1;exitX=0;exitY=0.5;exitDx=0;exitDy=0;" parent="WIyWlLk6GJQsqaUBKTNV-1" source="xSUPIS03bGIs6KMxI9sO-66" edge="1">
          <mxGeometry relative="1" as="geometry">
            <mxPoint x="1237.08" y="579" as="sourcePoint" />
            <mxPoint x="1310" y="375" as="targetPoint" />
          </mxGeometry>
        </mxCell>
        <mxCell id="xSUPIS03bGIs6KMxI9sO-68" value="" style="ellipse;whiteSpace=wrap;html=1;aspect=fixed;" parent="WIyWlLk6GJQsqaUBKTNV-1" vertex="1">
          <mxGeometry x="1595.41" y="725" width="50" height="50" as="geometry" />
        </mxCell>
        <mxCell id="xSUPIS03bGIs6KMxI9sO-69" value="" style="edgeStyle=orthogonalEdgeStyle;rounded=0;orthogonalLoop=1;jettySize=auto;html=1;exitX=0.5;exitY=1;exitDx=0;exitDy=0;entryX=0.5;entryY=0;entryDx=0;entryDy=0;" parent="WIyWlLk6GJQsqaUBKTNV-1" source="xSUPIS03bGIs6KMxI9sO-65" target="xSUPIS03bGIs6KMxI9sO-68" edge="1">
          <mxGeometry relative="1" as="geometry">
            <mxPoint x="1487.49" y="974" as="sourcePoint" />
            <mxPoint x="1660" y="725" as="targetPoint" />
          </mxGeometry>
        </mxCell>
        <mxCell id="xSUPIS03bGIs6KMxI9sO-70" value="" style="ellipse;whiteSpace=wrap;html=1;aspect=fixed;" parent="WIyWlLk6GJQsqaUBKTNV-1" vertex="1">
          <mxGeometry x="1430" y="430" width="50" height="50" as="geometry" />
        </mxCell>
        <mxCell id="xSUPIS03bGIs6KMxI9sO-73" value="" style="ellipse;whiteSpace=wrap;html=1;aspect=fixed;" parent="WIyWlLk6GJQsqaUBKTNV-1" vertex="1">
          <mxGeometry x="660" y="95" width="50" height="50" as="geometry" />
        </mxCell>
        <mxCell id="xSUPIS03bGIs6KMxI9sO-75" value="" style="ellipse;whiteSpace=wrap;html=1;aspect=fixed;" parent="WIyWlLk6GJQsqaUBKTNV-1" vertex="1">
          <mxGeometry x="1169.41" y="-245" width="50" height="50" as="geometry" />
        </mxCell>
        <mxCell id="xSUPIS03bGIs6KMxI9sO-76" value="" style="edgeStyle=orthogonalEdgeStyle;rounded=0;orthogonalLoop=1;jettySize=auto;html=1;exitX=0.5;exitY=1;exitDx=0;exitDy=0;entryX=0.5;entryY=0;entryDx=0;entryDy=0;" parent="WIyWlLk6GJQsqaUBKTNV-1" source="xSUPIS03bGIs6KMxI9sO-75" target="xSUPIS03bGIs6KMxI9sO-25" edge="1">
          <mxGeometry relative="1" as="geometry">
            <mxPoint x="1248" y="-185" as="sourcePoint" />
            <mxPoint x="1248" y="-145" as="targetPoint" />
          </mxGeometry>
        </mxCell>
        <mxCell id="xSUPIS03bGIs6KMxI9sO-81" value="&lt;span style=&quot;font-size: 20px;&quot;&gt;3 * (k + 1) + 2 &amp;lt; n&lt;/span&gt;" style="rhombus;whiteSpace=wrap;html=1;" parent="WIyWlLk6GJQsqaUBKTNV-1" vertex="1">
          <mxGeometry x="390" y="80" width="220" height="80" as="geometry" />
        </mxCell>
        <mxCell id="xSUPIS03bGIs6KMxI9sO-84" value="k = k + 1" style="rounded=0;whiteSpace=wrap;html=1;fontSize=20;" parent="WIyWlLk6GJQsqaUBKTNV-1" vertex="1">
          <mxGeometry x="260" y="201" width="145.64" height="51" as="geometry" />
        </mxCell>
        <mxCell id="xSUPIS03bGIs6KMxI9sO-85" value="" style="endArrow=classic;html=1;rounded=0;exitX=0;exitY=0.5;exitDx=0;exitDy=0;endFill=1;" parent="WIyWlLk6GJQsqaUBKTNV-1" edge="1">
          <mxGeometry width="50" height="50" relative="1" as="geometry">
            <mxPoint x="390" y="120" as="sourcePoint" />
            <mxPoint x="330" y="200" as="targetPoint" />
            <Array as="points">
              <mxPoint x="330" y="120" />
            </Array>
          </mxGeometry>
        </mxCell>
        <mxCell id="xSUPIS03bGIs6KMxI9sO-86" value="" style="endArrow=classic;html=1;rounded=0;exitX=0.5;exitY=1;exitDx=0;exitDy=0;endFill=1;" parent="WIyWlLk6GJQsqaUBKTNV-1" source="xSUPIS03bGIs6KMxI9sO-84" edge="1">
          <mxGeometry width="50" height="50" relative="1" as="geometry">
            <mxPoint x="370" y="300" as="sourcePoint" />
            <mxPoint x="500" y="60" as="targetPoint" />
            <Array as="points">
              <mxPoint x="333" y="300" />
              <mxPoint x="240" y="300" />
              <mxPoint x="240" y="170" />
              <mxPoint x="240" y="60" />
            </Array>
          </mxGeometry>
        </mxCell>
        <mxCell id="xSUPIS03bGIs6KMxI9sO-87" value="" style="edgeStyle=orthogonalEdgeStyle;rounded=0;orthogonalLoop=1;jettySize=auto;html=1;exitX=1;exitY=0.5;exitDx=0;exitDy=0;" parent="WIyWlLk6GJQsqaUBKTNV-1" source="xSUPIS03bGIs6KMxI9sO-81" edge="1">
          <mxGeometry relative="1" as="geometry">
            <mxPoint x="680" y="140" as="sourcePoint" />
            <mxPoint x="660" y="120" as="targetPoint" />
            <Array as="points">
              <mxPoint x="655" y="120" />
              <mxPoint x="655" y="120" />
            </Array>
          </mxGeometry>
        </mxCell>
        <mxCell id="xSUPIS03bGIs6KMxI9sO-88" value="" style="ellipse;whiteSpace=wrap;html=1;aspect=fixed;" parent="WIyWlLk6GJQsqaUBKTNV-1" vertex="1">
          <mxGeometry x="1595.41" y="-243" width="50" height="50" as="geometry" />
        </mxCell>
        <mxCell id="xSUPIS03bGIs6KMxI9sO-89" value="" style="edgeStyle=orthogonalEdgeStyle;rounded=0;orthogonalLoop=1;jettySize=auto;html=1;exitX=0.5;exitY=1;exitDx=0;exitDy=0;" parent="WIyWlLk6GJQsqaUBKTNV-1" edge="1">
          <mxGeometry relative="1" as="geometry">
            <mxPoint x="1619.41" y="-193" as="sourcePoint" />
            <mxPoint x="1619.41" y="-153" as="targetPoint" />
          </mxGeometry>
        </mxCell>
        <mxCell id="xSUPIS03bGIs6KMxI9sO-90" value="free(b)" style="rounded=0;whiteSpace=wrap;html=1;fontSize=20;" parent="WIyWlLk6GJQsqaUBKTNV-1" vertex="1">
          <mxGeometry x="1539" y="-151.5" width="162.82" height="51" as="geometry" />
        </mxCell>
        <mxCell id="xSUPIS03bGIs6KMxI9sO-91" value="" style="edgeStyle=orthogonalEdgeStyle;rounded=0;orthogonalLoop=1;jettySize=auto;html=1;exitX=0.5;exitY=1;exitDx=0;exitDy=0;" parent="WIyWlLk6GJQsqaUBKTNV-1" edge="1">
          <mxGeometry relative="1" as="geometry">
            <mxPoint x="1619.41" y="-100.5" as="sourcePoint" />
            <mxPoint x="1619.41" y="-60.5" as="targetPoint" />
          </mxGeometry>
        </mxCell>
        <mxCell id="xSUPIS03bGIs6KMxI9sO-92" value="&lt;span style=&quot;font-size: 25px;&quot;&gt;a, n&lt;br&gt;&lt;/span&gt;" style="shape=parallelogram;perimeter=parallelogramPerimeter;whiteSpace=wrap;html=1;fixedSize=1;" parent="WIyWlLk6GJQsqaUBKTNV-1" vertex="1">
          <mxGeometry x="1560.4100000000003" y="-58" width="120" height="61" as="geometry" />
        </mxCell>
        <mxCell id="K5MWTDcDUiipWp_YxF0B-0" value="&lt;span style=&quot;font-size: 20px;&quot;&gt;n &amp;lt; 1&lt;/span&gt;" style="rhombus;whiteSpace=wrap;html=1;" parent="WIyWlLk6GJQsqaUBKTNV-1" vertex="1">
          <mxGeometry x="454" y="-180.5" width="92" height="80" as="geometry" />
        </mxCell>
        <mxCell id="K5MWTDcDUiipWp_YxF0B-1" value="" style="endArrow=classic;html=1;rounded=0;exitX=0;exitY=0.5;exitDx=0;exitDy=0;endFill=1;entryX=0.5;entryY=0;entryDx=0;entryDy=0;" parent="WIyWlLk6GJQsqaUBKTNV-1" target="K5MWTDcDUiipWp_YxF0B-2" edge="1">
          <mxGeometry width="50" height="50" relative="1" as="geometry">
            <mxPoint x="454" y="-138" as="sourcePoint" />
            <mxPoint x="330" y="-30" as="targetPoint" />
            <Array as="points">
              <mxPoint x="330" y="-138" />
            </Array>
          </mxGeometry>
        </mxCell>
        <mxCell id="K5MWTDcDUiipWp_YxF0B-2" value="&lt;span style=&quot;font-size: 25px;&quot;&gt;Выход&lt;br&gt;&lt;/span&gt;" style="shape=parallelogram;perimeter=parallelogramPerimeter;whiteSpace=wrap;html=1;fixedSize=1;" parent="WIyWlLk6GJQsqaUBKTNV-1" vertex="1">
          <mxGeometry x="270.0000000000003" y="-45" width="120" height="61" as="geometry" />
        </mxCell>
        <mxCell id="K5MWTDcDUiipWp_YxF0B-5" value="&lt;font style=&quot;font-size: 20px;&quot;&gt;Да&lt;/font&gt;" style="edgeLabel;html=1;align=center;verticalAlign=middle;resizable=0;points=[];" parent="WIyWlLk6GJQsqaUBKTNV-1" vertex="1" connectable="0">
          <mxGeometry x="280.00336975918526" y="-156.00435767325158" as="geometry">
            <mxPoint x="122" y="17" as="offset" />
          </mxGeometry>
        </mxCell>
        <mxCell id="K5MWTDcDUiipWp_YxF0B-6" value="" style="edgeStyle=orthogonalEdgeStyle;rounded=0;orthogonalLoop=1;jettySize=auto;html=1;exitX=1;exitY=0.5;exitDx=0;exitDy=0;entryX=0.5;entryY=0;entryDx=0;entryDy=0;" parent="WIyWlLk6GJQsqaUBKTNV-1" source="K5MWTDcDUiipWp_YxF0B-0" target="xSUPIS03bGIs6KMxI9sO-13" edge="1">
          <mxGeometry relative="1" as="geometry">
            <mxPoint x="509.99999999999994" y="-210" as="sourcePoint" />
            <mxPoint x="500" y="-60" as="targetPoint" />
            <Array as="points">
              <mxPoint x="600" y="-140" />
              <mxPoint x="600" y="-80" />
              <mxPoint x="500" y="-80" />
            </Array>
          </mxGeometry>
        </mxCell>
        <mxCell id="b_Z9-srTBRpJ-prNFdom-2" value="&lt;p style=&quot;line-height: 110%;&quot;&gt;&lt;span style=&quot;font-size: 18px;&quot;&gt;Конец&lt;/span&gt;&lt;/p&gt;" style="ellipse;whiteSpace=wrap;html=1;" vertex="1" parent="WIyWlLk6GJQsqaUBKTNV-1">
          <mxGeometry x="1565.41" y="35" width="110" height="60" as="geometry" />
        </mxCell>
        <mxCell id="b_Z9-srTBRpJ-prNFdom-3" value="" style="edgeStyle=orthogonalEdgeStyle;rounded=0;orthogonalLoop=1;jettySize=auto;html=1;entryX=0.5;entryY=0;entryDx=0;entryDy=0;" edge="1" parent="WIyWlLk6GJQsqaUBKTNV-1" target="b_Z9-srTBRpJ-prNFdom-2">
          <mxGeometry relative="1" as="geometry">
            <mxPoint x="1620.41" y="3.5" as="sourcePoint" />
            <mxPoint x="1762.41" y="41.5" as="targetPoint" />
          </mxGeometry>
        </mxCell>
        <mxCell id="b_Z9-srTBRpJ-prNFdom-4" value="&lt;p style=&quot;line-height: 110%;&quot;&gt;&lt;span style=&quot;font-size: 18px;&quot;&gt;Конец&lt;/span&gt;&lt;/p&gt;" style="ellipse;whiteSpace=wrap;html=1;" vertex="1" parent="WIyWlLk6GJQsqaUBKTNV-1">
          <mxGeometry x="1254" y="36.5" width="110" height="60" as="geometry" />
        </mxCell>
        <mxCell id="b_Z9-srTBRpJ-prNFdom-5" value="" style="edgeStyle=orthogonalEdgeStyle;rounded=0;orthogonalLoop=1;jettySize=auto;html=1;entryX=0.5;entryY=0;entryDx=0;entryDy=0;" edge="1" parent="WIyWlLk6GJQsqaUBKTNV-1" target="b_Z9-srTBRpJ-prNFdom-4">
          <mxGeometry relative="1" as="geometry">
            <mxPoint x="1309" y="5" as="sourcePoint" />
            <mxPoint x="1451" y="43" as="targetPoint" />
          </mxGeometry>
        </mxCell>
      </root>
    </mxGraphModel>
  </diagram>
</mxfile>
